<?xml version="1.0" standalone="no"?>
<!DOCTYPE svg PUBLIC "-//W3C//DTD SVG 20010904//EN"
 "http://www.w3.org/TR/2001/REC-SVG-20010904/DTD/svg10.dtd">
<svg version="1.0" xmlns="http://www.w3.org/2000/svg"
 width="194.000000pt" height="194.000000pt" viewBox="0 0 194.000000 194.000000"
 preserveAspectRatio="xMidYMid meet">
<metadata>
Created by potrace 1.11, written by Peter Selinger 2001-2013
</metadata>
<g transform="translate(0.000000,194.000000) scale(0.100000,-0.100000)"
fill="#000000" stroke="none">
<path d="M630 1470 l0 -470 -30 0 c-27 0 -30 3 -30 30 l0 30 -125 0 -125 0 0
-30 c0 -33 -1 -33 -82 -30 -47 1 -48 1 -48 -29 0 -28 -3 -31 -30 -31 l-30 0 0
-65 0 -65 -30 0 -30 0 0 -125 0 -125 30 0 30 0 0 -65 0 -65 30 0 c27 0 30 -3
30 -30 l0 -30 65 0 65 0 0 -30 0 -30 125 0 125 0 0 30 0 30 60 0 60 0 0 30 c0
27 3 30 30 30 l30 0 0 65 0 65 35 0 35 0 0 440 0 440 60 0 60 0 0 -35 0 -35
95 0 95 0 0 -30 0 -30 95 0 95 0 0 -30 0 -30 90 0 90 0 0 -30 0 -30 95 0 95 0
0 -250 0 -250 -30 0 c-27 0 -30 3 -30 30 l0 30 -125 0 -125 0 0 -30 0 -30 -65
0 -65 0 0 -35 c0 -32 -2 -35 -30 -35 l-30 0 0 -60 0 -60 -30 0 -30 0 0 -125 0
-125 30 0 30 0 0 -65 0 -65 30 0 c27 0 30 -3 30 -30 l0 -30 65 0 65 0 0 -30 0
-30 125 0 125 0 0 30 0 30 60 0 60 0 0 30 c0 28 3 30 35 30 l35 0 0 65 0 65
30 0 30 0 0 655 0 655 -65 0 -65 0 0 30 0 30 -90 0 -90 0 0 35 0 35 -95 0 -95
0 0 30 0 30 -95 0 -95 0 0 30 0 30 -95 0 -95 0 0 30 0 30 -90 0 -90 0 0 35 0
35 -95 0 -95 0 0 -470z"/>
</g>
</svg>
